<!-- Generator: Adobe Illustrator 19.2.1, SVG Export Plug-In  -->
<svg viewBox="0 0 16 16"><path fill="#828282" d="M10.7,14.3c-0.3-1.7-0.8-3.4-1.5-5.2h0l0,0c-0.1,0-0.3,0.1-0.4,0.2C8.5,9.4,8.2,9.5,7.7,9.8s-1,0.6-1.4,0.9
	c-0.4,0.3-0.9,0.7-1.4,1.2s-0.8,1-1.1,1.5l-0.2-0.1c1.3,1,2.7,1.6,4.4,1.6C8.9,14.8,9.8,14.7,10.7,14.3z M8.7,8
	C8.6,7.6,8.4,7.2,8.2,6.8c-2.2,0.6-4.5,1-7,1c0,0,0,0.1,0,0.2c0,0.9,0.2,1.7,0.5,2.5s0.7,1.5,1.3,2.1c0.3-0.6,0.8-1.2,1.3-1.7
	s1-1,1.5-1.3C6.2,9.2,6.6,8.9,7,8.7s0.8-0.4,1-0.5l0.4-0.1c0,0,0.1,0,0.1,0C8.7,8,8.7,8,8.7,8z M7.6,5.8C6.8,4.3,5.9,3,5.1,1.8
	c-1,0.5-1.8,1.1-2.4,1.9S1.5,5.5,1.3,6.6C3.4,6.6,5.5,6.3,7.6,5.8z M14.8,9.1c-1.5-0.4-2.9-0.5-4.3-0.3c0.6,1.7,1,3.3,1.3,4.9
	c0.8-0.5,1.4-1.2,1.9-2S14.6,10,14.8,9.1z M6.4,1.4C6.4,1.4,6.4,1.4,6.4,1.4C6.4,1.4,6.4,1.4,6.4,1.4z M12.5,2.9
	C11.2,1.7,9.7,1.2,8,1.2c-0.5,0-1.1,0.1-1.6,0.2c0.9,1.2,1.8,2.5,2.6,4C9.4,5.2,9.9,5,10.3,4.7c0.4-0.2,0.8-0.5,1-0.6
	c0.2-0.2,0.5-0.4,0.7-0.6c0.2-0.2,0.3-0.3,0.4-0.4L12.5,2.9z M14.8,7.9c0-1.6-0.5-3-1.6-4.3l0,0c-0.1,0.1-0.1,0.2-0.2,0.3
	C13,4,12.9,4.2,12.6,4.4c-0.2,0.2-0.5,0.4-0.7,0.6c-0.3,0.2-0.6,0.4-1,0.7c-0.4,0.3-0.9,0.5-1.4,0.7c0.2,0.4,0.3,0.7,0.5,1
	c0,0,0,0.1,0.1,0.2c0,0.1,0.1,0.1,0.1,0.2c0.2,0,0.5-0.1,0.8-0.1c0.3,0,0.5,0,0.8,0c0.2,0,0.5,0,0.7,0c0.2,0,0.5,0,0.7,0
	s0.4,0,0.6,0.1c0.2,0,0.4,0,0.5,0.1c0.1,0,0.3,0,0.4,0.1s0.2,0,0.3,0L14.8,7.9z M16,8c0,1.5-0.4,2.8-1.1,4c-0.7,1.2-1.7,2.2-2.9,2.9
	C10.8,15.6,9.5,16,8,16s-2.8-0.4-4-1.1c-1.2-0.7-2.2-1.7-2.9-2.9S0,9.5,0,8s0.4-2.8,1.1-4S2.8,1.8,4,1.1S6.5,0,8,0s2.8,0.4,4,1.1
	s2.2,1.7,2.9,2.9C15.6,5.2,16,6.5,16,8z"/>
</svg>
